<svg width="64" height="45" viewBox="0 0 64 45" fill="none" xmlns="http://www.w3.org/2000/svg">
<path d="M42.5443 22.4341C40.8441 22.4341 39.2439 21.5295 38.4438 20.1223L32.0431 9.36704L25.5423 20.1223C24.7422 21.63 23.142 22.5347 21.4419 22.5347C20.9418 22.5347 20.5418 22.4341 20.1417 22.3336L6.44014 18.313V36.2048C6.44014 37.7126 7.44025 39.0193 8.84041 39.3208L30.4429 44.8492C31.443 45.0503 32.5431 45.0503 33.5432 44.8492L55.1457 39.3208C56.6459 39.0193 57.646 37.7126 57.646 36.2048V18.313L43.9444 22.3336C43.4444 22.4341 43.0443 22.4341 42.5443 22.4341ZM63.8467 11.1763L58.6461 0.823177C58.3461 0.22008 57.746 -0.0814683 57.0459 0.0190478L32.0431 3.13505L41.1441 18.514C41.5442 19.1171 42.3442 19.4187 43.0443 19.2176L62.8466 13.4882C63.8467 13.1867 64.2467 12.081 63.8467 11.1763ZM5.34001 0.823177L0.139418 11.1763C-0.260628 12.081 0.239429 13.1867 1.13953 13.4882L20.9418 19.2176C21.6419 19.4187 22.442 19.1171 22.842 18.4135L32.0431 3.13505L6.9402 0.0190478C6.24012 -0.0814683 5.64005 0.22008 5.34001 0.823177Z" fill="#0E96A7"/>
</svg>
