<svg width="56" height="50" viewBox="0 0 56 50" fill="none" xmlns="http://www.w3.org/2000/svg">
<path d="M20.2222 0C17.3056 0 14.875 2.05078 14.1944 4.78516C14.0972 4.78516 14 4.6875 14 4.6875C10.5 4.6875 7.77778 7.51953 7.77778 10.9375C7.77778 11.4258 7.77778 11.9141 7.875 12.3047C5.05556 13.4766 3.11111 16.3086 3.11111 19.5312C3.11111 20.8008 3.40278 21.9727 3.88889 22.9492C1.55556 24.3164 0 26.8555 0 29.6875C0 33.0078 1.94444 35.7422 4.76389 36.9141C4.66667 37.4023 4.66667 37.8906 4.66667 38.2812C4.66667 42.1875 7.77778 45.3125 11.6667 45.3125C12.0556 45.3125 12.4444 45.3125 12.8333 45.2148C13.7083 48.0469 16.3333 50 19.4444 50C23.2361 50 26.4444 46.875 26.4444 42.9688V6.25C26.4444 2.83203 23.625 0 20.2222 0ZM56 29.6875C56 26.8555 54.3472 24.3164 52.0139 22.9492C52.5 21.9727 52.8889 20.8008 52.8889 19.5312C52.8889 16.3086 50.8472 13.4766 48.0278 12.3047C48.125 11.9141 48.2222 11.4258 48.2222 10.9375C48.2222 7.51953 45.4028 4.6875 42 4.6875C41.9028 4.6875 41.8056 4.78516 41.7083 4.78516C41.0278 2.05078 38.5972 0 35.7778 0C32.2778 0 29.5556 2.83203 29.5556 6.25V42.9688C29.5556 46.875 32.6667 50 36.5556 50C39.5694 50 42.1944 48.0469 43.1667 45.2148C43.4583 45.3125 43.8472 45.3125 44.3333 45.3125C48.125 45.3125 51.3333 42.1875 51.3333 38.2812C51.3333 37.8906 51.2361 37.4023 51.1389 36.9141C53.9583 35.7422 56 33.0078 56 29.6875Z" fill="#0E96A7"/>
</svg>
