<svg width="60" height="45" viewBox="0 0 60 45" fill="none" xmlns="http://www.w3.org/2000/svg">
<path d="M58.125 37.5H7.5V1.875C7.5 0.9375 6.5625 0 5.625 0H1.875C0.820312 0 0 0.9375 0 1.875V41.25C0 43.3594 1.64062 45 3.75 45H58.125C59.0625 45 60 44.1797 60 43.125V39.375C60 38.4375 59.0625 37.5 58.125 37.5ZM54.375 3.75H40.4297C37.9688 3.75 36.6797 6.79688 38.4375 8.55469L42.3047 12.4219L33.75 20.9766L25.0781 12.4219C23.6719 10.8984 21.2109 10.8984 19.8047 12.4219L11.7188 20.5078C11.0156 21.2109 11.0156 22.3828 11.7188 23.0859L14.4141 25.7812C15.1172 26.4844 16.2891 26.4844 16.9922 25.7812L22.5 20.3906L31.0547 28.9453C32.4609 30.4688 34.9219 30.4688 36.3281 28.9453L47.5781 17.6953L51.4453 21.5625C53.2031 23.3203 56.1328 22.0312 56.1328 19.5703V5.625C56.25 4.6875 55.3125 3.75 54.375 3.75Z" fill="#0E96A7"/>
</svg>
