<svg width="60" height="41" viewBox="0 0 60 41" fill="none" xmlns="http://www.w3.org/2000/svg">
<path d="M53.4459 18.9084C51.9043 18.1362 51 16.367 51 14.6429C51 9.79241 46.9687 5.85714 42 5.85714C39.1176 5.85714 35.6968 5.16196 33.4568 3.348C30.8843 1.26482 27.5795 0 24 0C15.6562 0 9 6.58929 9 14.6429C9 15.1346 8.6826 15.5664 8.22651 15.7501C3.38553 17.6998 0 22.4301 0 27.8214C0 35.1429 6 41 13.5 41H48C54.5625 41 60 35.7835 60 29.2857C60 24.8096 57.3482 20.8631 53.4459 18.9084Z" fill="#0E96A7"/>
</svg>
