<svg width="28" height="51" viewBox="0 0 28 51" fill="none" xmlns="http://www.w3.org/2000/svg">
<path d="M20.3665 23.3086L9.8668 20.1211C8.60295 19.8223 7.8252 18.627 7.8252 17.332C7.8252 15.7383 9.08905 14.3438 10.6446 14.3438H17.061C18.3249 14.3438 19.4915 14.7422 20.4637 15.4395C21.047 15.8379 21.8248 15.7383 22.3109 15.2402L25.7135 11.8535C26.3941 11.1562 26.2968 10.0605 25.5191 9.36328C24.4178 8.46996 23.1648 7.77637 21.8318 7.28252C19.3321 6.3564 17.1582 4.25953 17.1582 1.59375C17.1582 0.796875 16.3805 0 15.6027 0H12.4917C11.6167 0 10.9362 0.796875 10.9362 1.59375V6.08334C10.9362 6.24442 10.8056 6.375 10.6446 6.375C4.42253 6.375 -0.535644 11.8535 0.0476712 18.3281C0.436548 22.9102 3.83922 26.6953 8.21408 27.9902L18.1304 30.9785C19.3943 31.2773 20.2692 32.4727 20.2692 33.7676C20.2692 35.3613 18.9082 36.6562 17.3527 36.6562H10.9362C9.76958 36.6562 8.60295 36.3574 7.63076 35.6602C6.95023 35.2617 6.17248 35.3613 5.68638 35.8594L2.28371 39.2461C1.60318 39.9434 1.7004 41.0391 2.47815 41.6367C3.63596 42.5857 4.90407 43.3087 6.25097 43.8056C8.72834 44.7197 10.9362 46.7656 10.9362 49.4062C10.9362 50.3027 11.6167 51 12.4917 51H15.6027C16.3805 51 17.1582 50.3027 17.1582 49.4062C17.1582 46.7486 19.3719 44.6702 21.7843 43.555C24.3417 42.3727 26.4322 40.2602 27.3662 37.4531C29.5051 31.2773 26.0052 25.002 20.3665 23.3086Z" fill="#0E96A7"/>
</svg>
