<svg width="62" height="37" viewBox="0 0 62 37" fill="none" xmlns="http://www.w3.org/2000/svg">
<path d="M42.0437 0H33.7125C32.9375 0 32.2594 0.2886 31.6781 0.8658L22.0875 9.5238C20.5375 11.063 20.5375 13.468 21.8937 14.911C23.1439 16.248 25.6352 16.6369 27.2825 15.2309C27.3059 15.211 27.2996 15.1996 27.3302 15.1996C27.3619 15.1996 27.4286 15.1877 27.4519 15.1663L35.0687 8.177C35.7469 7.5998 36.7156 7.5998 37.2969 8.2732C37.8781 8.8504 37.8781 9.8124 37.2 10.3896C35.8756 11.6036 35.9448 13.7125 37.346 14.8371L48.7894 24.0214C48.813 24.0404 48.8337 24.0634 48.8514 24.0879C49.024 24.3276 49.5031 24.1331 49.5031 23.8377V8.25649C49.5031 6.91259 48.9668 5.62425 48.0132 4.6773L44.2719 0.962C43.6906 0.3848 42.9156 0 42.0437 0ZM57.35 6.253C54.7819 6.253 52.7 8.33487 52.7 10.903V27.8018C52.7 29.4372 54.0562 30.8802 55.8 30.8802C59.2242 30.8802 62 28.1044 62 24.6802V10.903C62 8.33487 59.9181 6.253 57.35 6.253ZM57.35 27.8018C56.4781 27.8018 55.8 27.0322 55.8 26.2626C55.8 25.3968 56.4781 24.7234 57.35 24.7234C58.125 24.7234 58.9 25.3968 58.9 26.2626C58.9 27.0322 58.125 27.8018 57.35 27.8018ZM0 24.584C0 28.0082 2.77584 30.784 6.2 30.784C7.84687 30.784 9.3 29.4372 9.3 27.7056V10.903C9.3 8.33488 7.21812 6.253 4.65 6.253C2.08188 6.253 0 8.33487 0 10.903V24.584ZM4.65 24.7234C5.425 24.7234 6.2 25.3968 6.2 26.2626C6.2 27.0322 5.425 27.8018 4.65 27.8018C3.77812 27.8018 3.1 27.0322 3.1 26.2626C3.1 25.3968 3.77812 24.7234 4.65 24.7234ZM46.7906 26.455L35.3904 17.2616C33.6405 15.8504 31.1261 15.9142 29.45 17.4122C26.5437 20.1058 22.1844 19.8172 19.5687 17.0274C17.05 14.2376 17.2437 9.8124 20.0531 7.215L21.9731 5.47114C24.1008 3.53863 22.7337 0 19.8594 0C18.9875 0 18.2125 0.3848 17.6312 0.962L16.8941 1.69399C14.0177 4.5504 12.4 8.43657 12.4 12.4903V26.4468C12.4 27.142 12.9636 27.7056 13.6588 27.7056C13.9709 27.7056 14.2719 27.8215 14.5034 28.0309L22.8625 35.594C25.5604 37.7947 29.4083 37.3307 31.5467 34.7699C31.5686 34.7437 31.601 34.7282 31.6352 34.7282C31.6629 34.7282 31.6896 34.7382 31.7104 34.7565L33.325 36.1712C34.875 37.4218 37.2 37.2294 38.4594 35.6902L40.991 32.5274C41.2502 32.2037 41.7243 32.155 42.0437 32.4194C43.3031 33.4776 45.2406 33.2852 46.4031 31.9384L47.275 30.784C48.3406 29.4372 48.1469 27.5132 46.7906 26.455Z" fill="#0E96A7"/>
</svg>
