<svg width="56" height="43" viewBox="0 0 56 43" fill="none" xmlns="http://www.w3.org/2000/svg">
<path d="M27.2721 11.1588L18.5762 18.279C12.777 23.0273 9.41421 30.127 9.41421 37.6221V41.4608C9.41421 42.3266 10.0936 43 10.9671 43H21.8371C22.6135 43 23.2929 42.3266 23.2929 41.4608V32.226C23.2929 31.4564 24.0693 30.6868 24.8458 30.6868H31.0572C31.9307 30.6868 32.6101 31.4564 32.6101 32.226V41.4608C32.6101 42.3266 33.3865 43 34.1629 43H45.13C45.9064 43 46.6828 42.3266 46.6828 41.4608V37.6161C46.6828 30.0695 43.2738 22.9266 37.4068 18.1801L28.7279 11.1588C28.5338 10.9664 28.2426 10.8702 28.0485 10.8702C27.7574 10.8702 27.4662 10.9664 27.2721 11.1588ZM55.5147 21.0671C50.414 16.8642 47.4593 10.601 47.4593 3.99172V1.15436C47.4593 0.480984 46.8769 0 46.2946 0H40.8596C40.1802 0 39.695 0.480984 39.695 1.15436C39.695 3.92724 36.4754 5.45672 34.3259 3.70498L30.9601 0.961969C30.1837 0.384787 29.1161 0 28.0485 0C26.8839 0 25.8163 0.384787 25.0399 0.961969L0.485269 21.0671C0.194107 21.2595 0 21.6443 0 21.9329C0 22.4853 0.471449 22.9155 0.828306 23.3372L2.81456 25.6846C3.00867 25.9732 3.29983 26.0694 3.68804 26.0694C3.9792 26.0694 4.27036 25.9732 4.46447 25.7808L27.2721 7.21477C27.4662 7.02237 27.7574 6.92617 28.0485 6.92617C28.2426 6.92617 28.5338 7.02237 28.7279 7.21477L51.5355 25.7808C51.7296 25.9732 52.0208 26.0694 52.312 26.0694C52.7002 26.0694 52.9913 25.9732 53.1854 25.6846L55.7088 22.7025C55.9029 22.5101 56 22.2215 56 21.9329C56 21.6443 55.8059 21.2595 55.5147 21.0671Z" fill="#0E96A7"/>
</svg>
