<svg width="43" height="50" viewBox="0 0 43 50" fill="none" xmlns="http://www.w3.org/2000/svg">
<path d="M33.7857 31.25C33.5847 31.25 33.3852 31.2565 33.1875 31.2692C29.8313 31.4855 26.1041 32.0853 23.2614 30.2881L19.889 28.1561C18.861 27.5062 18.3326 26.2162 18.3326 25C18.3326 23.8411 18.827 22.613 19.8065 21.9937L23.2614 19.8095C26.1041 18.0124 29.8612 18.5538 33.2195 18.7348C33.4067 18.7449 33.5955 18.75 33.7857 18.75C38.8728 18.75 43 14.6484 43 9.375C43 4.19922 38.8728 0 33.7857 0C28.6027 0 24.5714 4.19922 24.5714 9.375C24.5714 10.5912 24.043 11.8812 23.015 12.5311L19.6426 14.6631C16.7999 16.4603 13.0763 15.8373 9.71899 15.6398C9.5515 15.63 9.3832 15.625 9.21429 15.625C4.03125 15.625 0 19.8242 0 25C0 30.2734 4.03125 34.375 9.21429 34.375C9.37234 34.375 9.52985 34.3712 9.68666 34.3636C13.0458 34.2004 16.7999 33.6374 19.6426 35.4345L23.015 37.5666C24.0431 38.2165 24.5714 39.5064 24.5714 40.7227V40.625C24.5714 45.8984 28.6027 50 33.7857 50C38.8728 50 43 45.8984 43 40.625C43 35.4492 38.8728 31.25 33.7857 31.25Z" fill="#0E96A7"/>
</svg>
