<svg width="46" height="50" viewBox="0 0 46 50" fill="none" xmlns="http://www.w3.org/2000/svg">
<path d="M43.125 8.10943L24.725 0.293112C24.15 0.097704 23.575 0 23 0C22.3292 0 21.7542 0.097704 21.1792 0.293112L2.77917 8.10943C1.05417 8.89106 0 10.552 0 12.4084C0 31.8515 10.925 45.2369 21.1792 49.6336C22.3292 50.1221 23.575 50.1221 24.725 49.6336C32.9667 46.1163 46 34.0987 46 12.4084C46 10.552 44.85 8.89106 43.125 8.10943ZM36.0386 29.7021C32.1929 37.6635 23 33.0479 23 24.2063V18.9475C23 12.9762 29.097 8.94372 34.592 11.2807C37.7211 12.6114 39.8099 15.7274 39.2935 19.0882C38.6934 22.9932 37.5622 26.5479 36.0386 29.7021Z" fill="#0E96A7"/>
</svg>
