<svg width="57" height="50" viewBox="0 0 57 50" fill="none" xmlns="http://www.w3.org/2000/svg">
<path d="M52.296 29.4922L56.9511 9.17969C57.2482 7.71484 56.1587 6.25 54.574 6.25H15.7482L14.8568 1.95312C14.5597 0.878906 13.5692 0 12.4797 0H2.37709C0.990454 0 0 1.07422 0 2.34375V3.90625C0 5.27344 0.990454 6.25 2.37709 6.25H9.21122L16.2434 39.8438C14.5597 40.8203 13.4702 42.5781 13.4702 44.5312C13.4702 47.5586 15.9463 50 19.0167 50C21.9881 50 24.5633 47.5586 24.5633 44.5312C24.5633 43.0664 23.8699 41.6992 22.8795 40.625H43.58C42.5895 41.6992 41.9952 43.0664 41.9952 44.5312C41.9952 47.5586 44.4714 50 47.5418 50C50.5131 50 53.0883 47.5586 53.0883 44.5312C53.0883 42.3828 51.8007 40.5273 49.9189 39.6484L50.4141 37.3047C50.8103 35.8398 49.6217 34.375 48.1361 34.375H21.5919L20.8986 31.25H49.9189C51.0084 31.25 51.9988 30.5664 52.296 29.4922Z" fill="#0E96A7"/>
</svg>
