<svg width="62" height="50" viewBox="0 0 62 50" fill="none" xmlns="http://www.w3.org/2000/svg">
<path d="M15.5286 18.7063C7.57784 18.7063 1.17848 24.476 0.0149572 31.9083C-0.0820029 32.3973 0.305837 32.7884 0.790637 32.7884H30.1695C31.0865 32.7884 30.9842 31.4487 30.7533 30.5612C28.9917 23.7904 22.9009 18.7063 15.5286 18.7063ZM30.1695 35.9178H0.790637C0.305837 35.9178 -0.0820029 36.4068 0.0149572 36.8957C1.17848 44.328 7.57784 50 15.5286 50C23.3823 50 29.7817 44.328 30.9452 36.8957C31.0422 36.4068 30.6543 35.9178 30.1695 35.9178ZM57.5123 4.52629C51.9855 -0.950108 43.55 -1.43907 37.4415 2.96161C37.0537 3.25499 37.0537 3.84174 37.3446 4.13512L57.9001 24.8672C58.191 25.1606 58.7727 25.1606 59.0636 24.7694C63.4268 18.6085 62.942 10.1005 57.5123 4.52629ZM36.1991 7.38047C35.5415 6.71724 34.5083 5.73268 33.951 6.48215C29.5878 12.6431 30.0726 21.1511 35.5023 26.7253C41.029 32.2017 49.4646 32.6907 55.5731 28.29C56.322 27.7234 55.3382 26.684 54.677 26.0171L36.1991 7.38047Z" fill="#0E96A7"/>
</svg>
