<svg width="101" height="120" viewBox="0 0 101 120" fill="none" xmlns="http://www.w3.org/2000/svg">
<path fill-rule="evenodd" clip-rule="evenodd" d="M72.8477 115.43C73.0567 114.976 72.8582 114.439 72.4044 114.23C68.8782 112.607 65.3376 111.163 61.8662 109.748C59.3774 108.733 56.9242 107.733 54.5374 106.691C48.7591 104.17 43.1782 101.331 37.8101 97.2483C28.2011 89.9405 20.1628 80.5953 16.0859 69.1774C13.9829 63.2879 13.1464 56.1964 14.2729 49.6704C15.3981 43.1516 18.4651 37.2677 24.105 33.636C26.9657 31.7939 30.3435 30.534 33.9404 29.8486C32.3428 32.9099 31.1695 36.2823 30.5369 40.0025C29.0383 48.8151 35.0444 55.0127 42.427 57.5384C49.7805 60.0542 58.9262 59.0966 64.1779 53.2412C67.0027 50.0917 67.9666 46.5238 67.3602 43.0851C66.7584 39.6727 64.6303 36.49 61.4635 34.0115C56.3669 30.0225 49.4761 27.8259 42.5496 27.4749C40.8346 27.388 39.1114 27.414 37.4066 27.5554C42.6349 19.7464 50.9579 14.2218 59.8779 10.1753C60.3329 9.96891 60.5344 9.43279 60.328 8.97783C60.1216 8.52288 59.5855 8.32138 59.1305 8.52777C49.6224 12.8411 40.5128 18.9287 35.0867 27.8213C30.7424 28.4599 26.6022 29.8762 23.1255 32.1149C16.9496 36.0918 13.6763 42.4907 12.4901 49.3627C11.3051 56.2275 12.1858 63.6348 14.3821 69.7857C18.6087 81.6228 26.9127 91.2335 36.715 98.6883C42.2449 102.894 47.9718 105.8 53.8138 108.35C56.302 109.435 58.7781 110.444 61.2664 111.458C64.6827 112.849 68.1221 114.25 71.6477 115.874C72.1015 116.082 72.6388 115.884 72.8477 115.43ZM36.1992 29.4969C38.2536 29.2466 40.3572 29.1753 42.4581 29.2817C49.0943 29.618 55.6042 31.7229 60.3485 35.4362C63.2469 37.7046 65.0709 40.5207 65.5786 43.3993C66.0816 46.2516 65.3122 49.267 62.8311 52.0333C58.2193 57.1752 49.9298 58.1932 43.0126 55.8267C36.1244 53.4701 31.0243 47.9275 32.3204 40.3058C33.0006 36.3058 34.3443 32.7192 36.1992 29.4969Z" fill="#4B4B4B"/>
<path fill-rule="evenodd" clip-rule="evenodd" d="M66.7816 116.612C66.7565 117.111 67.1407 117.536 67.6396 117.561C67.6917 117.563 67.7664 117.567 67.8607 117.572C68.5817 117.611 70.4547 117.711 72.2275 117.732C73.2251 117.744 74.2222 117.731 74.9749 117.664C75.3415 117.631 75.7058 117.581 75.9949 117.493C76.1312 117.452 76.3298 117.38 76.5081 117.244C76.7003 117.096 76.9879 116.766 76.9203 116.275C76.8241 115.576 76.384 114.991 75.9757 114.554C75.55 114.098 75.0229 113.664 74.5666 113.291L74.5294 113.26C74.0624 112.878 73.6836 112.568 73.425 112.292C73.3222 112.183 73.2639 112.105 73.2334 112.056C73.2678 111.619 72.9805 111.21 72.5413 111.106C72.0553 110.99 71.5674 111.29 71.4515 111.776C71.3531 112.188 71.4602 112.558 71.5955 112.83C71.7286 113.096 71.9198 113.332 72.1052 113.53C72.4488 113.896 72.9137 114.276 73.3359 114.621C73.3645 114.645 73.3929 114.668 73.4211 114.691C73.8927 115.077 74.3242 115.436 74.6534 115.788C74.6793 115.816 74.7039 115.843 74.7273 115.869C74.0766 115.922 73.1919 115.934 72.249 115.923C70.5189 115.902 68.6895 115.805 67.9606 115.766C67.8633 115.761 67.7856 115.757 67.7304 115.754C67.2315 115.729 66.8067 116.113 66.7816 116.612ZM75.4999 115.752C75.4998 115.752 75.4977 115.753 75.494 115.754C75.4981 115.753 75.5 115.752 75.4999 115.752Z" fill="#4B4B4B"/>
</svg>
