<svg width="50" height="45" viewBox="0 0 50 45" fill="none" xmlns="http://www.w3.org/2000/svg">
<path d="M45.76 17.2961C44.8556 16.9281 44.1322 16.7441 43.4087 16.7441C42.6852 16.7441 41.7809 16.3761 41.4191 15.6401L38.7061 10.8561C38.3443 10.1201 38.3443 9.20014 38.7061 8.46414C39.2487 7.54414 39.6104 6.25614 39.4296 4.96814C39.2487 2.39214 37.0783 0.184145 34.5461 0.000144824C32.1948 -0.183855 30.2052 0.920145 29.12 2.76014C28.7583 3.49614 28.0348 3.86414 27.1304 3.86414H21.8852C21.1617 3.86414 20.2574 3.31214 19.8956 2.76014C18.8104 0.920145 16.8208 -0.183855 14.4695 0.000144824C12.1182 0.368145 9.94778 2.57614 9.76691 5.15214C9.58604 6.44014 9.94778 7.54414 10.4904 8.64814C10.8521 9.20014 11.033 10.1201 10.4904 10.8561L7.95821 15.6401C7.4156 16.3761 6.69213 16.7441 5.78778 16.7441C5.24517 16.7441 4.88343 16.7441 4.34082 16.9281C2.17039 17.4801 0.361695 19.3201 -4.40031e-05 21.5281C-0.542653 25.0241 1.98952 28.1521 5.42604 28.1521H5.60691C6.33039 28.1521 7.23473 28.5201 7.59647 29.2561L10.3095 34.0401C10.6713 34.7761 10.6713 35.6961 10.3095 36.4321C9.76691 37.3521 9.40517 38.6401 9.58604 39.7441C9.76691 42.3201 11.9373 44.5281 14.4695 44.7121C16.64 44.8961 18.8104 43.7921 19.8956 41.9521C20.2574 41.2161 20.9809 40.8481 21.8852 40.8481H27.3113C28.0348 40.8481 28.9391 41.4001 29.3009 41.9521C30.2052 43.6081 32.1948 44.7121 34.1843 44.7121C37.0783 44.7121 39.6104 42.1361 39.6104 39.1921C39.7913 36.0641 37.2591 33.4881 34.0035 33.4881C31.833 33.4881 29.8435 34.7761 28.9391 36.6161C28.5774 37.3521 27.8539 37.9041 26.9496 37.9041H22.0661C21.1617 37.9041 20.4383 37.3521 20.0765 36.6161C19.1722 34.7761 17.1826 33.4881 15.0121 33.4881C14.8313 33.4881 14.8313 33.4881 14.6504 33.4881C13.9269 33.4881 13.0226 33.1201 12.6608 32.3841L9.94778 27.7841C9.58604 27.0481 9.58604 26.1281 9.94778 25.3921C9.94778 25.3921 9.94778 25.3921 9.94778 25.2081C10.3095 24.4721 11.033 24.1041 11.9373 24.1041H17.5443C18.4487 24.1041 19.1722 24.6561 19.5339 25.3921C20.4383 27.0481 22.2469 28.1521 24.2365 28.1521C26.2261 28.1521 28.0348 27.0481 29.12 25.2081C29.4817 24.4721 30.2052 23.9201 31.1096 23.9201H37.9826C38.5252 26.3121 40.6956 27.9681 43.4087 27.9681C46.6643 27.9681 49.1965 25.0241 49.0156 21.7121C48.8348 19.8721 47.5687 18.0321 45.76 17.2961ZM24.5983 16.7441C22.4278 16.7441 20.6191 18.0321 19.7148 19.8721C19.353 20.6081 18.6296 20.9761 17.7252 20.9761H12.48C11.5756 20.9761 10.8521 20.4241 10.4904 19.6881C10.4904 19.5041 10.3095 19.5041 10.3095 19.3201C9.94778 18.5841 9.76691 17.8481 10.3095 17.1121L13.0226 12.1441C13.3843 11.4081 14.2886 11.0401 15.0121 11.0401H15.193C17.3634 11.0401 19.1722 9.75214 20.0765 7.91214C20.4383 7.17614 21.1617 6.62414 22.0661 6.62414H27.1304C27.8539 6.62414 28.7583 7.17614 29.12 7.91214C30.0243 9.75214 31.833 11.0401 34.0035 11.0401H34.1843C35.0887 11.0401 35.8122 11.4081 36.1739 12.1441L38.7061 16.7441C39.0678 17.4801 39.2487 18.4001 38.7061 19.1361C38.3443 19.6881 38.1635 20.0561 38.1635 20.7921H31.2904C30.3861 20.7921 29.6626 20.2401 29.3009 19.5041C28.3965 18.0321 26.5878 16.7441 24.5983 16.7441Z" fill="url(#paint0_linear_1501_4722)"/>
<defs>
<linearGradient id="paint0_linear_1501_4722" x1="7.72905" y1="39.6306" x2="42.0551" y2="5.88858" gradientUnits="userSpaceOnUse">
<stop stop-color="#0090C6"/>
<stop offset="1" stop-color="#1EDDD6"/>
</linearGradient>
</defs>
</svg>
