<svg width="146" height="28" viewBox="0 0 146 28" fill="none" xmlns="http://www.w3.org/2000/svg">
<path d="M12.1565 4.64016C12.6992 4.64016 13.0609 4.45616 13.4226 4.08816C13.7844 3.72016 13.9652 3.35216 13.9652 2.98416C13.9652 2.43216 13.7844 2.06416 13.4226 1.69616C13.0609 1.32816 12.6992 1.14416 12.1565 1.14416H2.75132C2.20871 1.14416 1.84697 1.32816 1.48523 1.69616C1.1235 2.06416 0.942627 2.43216 0.942627 2.98416V19.5442C0.942627 20.0962 1.1235 20.4642 1.48523 20.8322C1.84697 21.2002 2.20871 21.3842 2.75132 21.3842H12.1565C12.6992 21.3842 13.0609 21.2002 13.4226 20.8322C13.7844 20.4642 13.9652 20.0962 13.9652 19.7282C13.9652 19.1762 13.7844 18.9922 13.4226 18.6242C13.0609 18.2562 12.6992 18.0722 12.1565 18.0722H4.56002V12.7362H10.8905C11.4331 12.7362 11.7948 12.5522 12.1565 12.1842C12.5183 11.8162 12.6992 11.4482 12.6992 11.0802C12.6992 10.5282 12.5183 10.1602 12.1565 9.79216C11.7948 9.42416 11.4331 9.24016 10.8905 9.24016H4.56002V4.45616L12.1565 4.64016ZM34.2226 5.74416C33.1374 5.74416 32.0522 6.11216 31.1479 6.66416C30.2435 7.21616 29.52 8.13616 29.1583 8.87216C28.6157 6.84816 26.9879 5.74416 24.6366 5.74416C23.7322 5.74416 22.8279 5.92816 22.1044 6.48016C21.3809 7.03216 20.6574 7.58416 20.1148 8.32016V7.76816C20.1148 7.21616 19.9339 6.84816 19.5722 6.48016C19.2105 6.11216 18.8487 5.92816 18.3061 5.92816C17.7635 5.92816 17.4018 6.11216 17.04 6.48016C16.6783 6.84816 16.4974 7.21616 16.4974 7.76816V19.7282C16.4974 20.2802 16.6783 20.6482 17.04 21.0162C17.4018 21.3842 17.7635 21.5682 18.3061 21.5682C18.8487 21.5682 19.2105 21.3842 19.5722 21.0162C19.9339 20.6482 20.1148 20.2802 20.1148 19.7282V12.3682C20.1148 11.4482 20.4765 10.5282 21.0192 9.97616C21.5618 9.42416 22.4661 9.05616 23.5513 9.05616C24.6365 9.05616 25.36 9.42416 25.7218 9.97616C26.0835 10.5282 26.2644 11.4482 26.2644 12.5522V19.9122C26.2644 20.4642 26.4452 20.8322 26.807 21.2002C27.1687 21.5682 27.5305 21.7522 28.0731 21.7522C28.6157 21.7522 28.9774 21.5682 29.3392 21.2002C29.7009 20.8322 29.8818 20.4642 29.8818 19.9122V12.5522C29.8818 11.6322 30.2435 10.7122 30.7861 10.1602C31.3287 9.60816 32.2331 9.24016 33.3183 9.24016C34.4035 9.24016 35.127 9.60816 35.4887 10.1602C35.8505 10.7122 36.0313 11.6322 36.0313 12.7362V20.0962C36.0313 20.6482 36.2122 21.0162 36.5739 21.3842C36.9357 21.7522 37.2974 21.9362 37.84 21.9362C38.3826 21.9362 38.7444 21.7522 39.1061 21.3842C39.4679 21.0162 39.6487 20.6482 39.6487 20.0962V12.7362C39.6487 10.7122 39.287 9.05616 38.5635 7.95216C37.4783 6.48016 36.0313 5.74416 34.2226 5.74416ZM54.48 6.84816C53.3948 6.11216 52.3096 5.92816 51.0435 5.92816C50.1392 5.92816 49.2348 6.11216 48.5113 6.48016C47.7879 6.84816 47.0644 7.40016 46.7026 7.95216V7.76816C46.7026 7.21616 46.5218 6.84816 46.16 6.48016C45.7983 6.11216 45.4366 5.92816 44.8939 5.92816C44.3513 5.92816 43.9896 6.11216 43.6279 6.48016C43.2661 6.84816 43.0852 7.21616 43.0852 7.76816V25.4322C43.0852 25.9842 43.2661 26.3522 43.6279 26.7202C43.9896 27.0882 44.3513 27.2722 44.8939 27.2722C45.4366 27.2722 45.7983 27.0882 46.16 26.7202C46.5218 26.3522 46.7026 25.9842 46.7026 25.4322V19.7282C47.2452 20.2802 47.9687 20.6482 48.6922 21.0162C49.4157 21.3842 50.32 21.5682 51.2244 21.5682C52.4905 21.5682 53.5757 21.2002 54.6609 20.6482C55.7461 19.9122 56.4696 18.9922 57.1931 17.7042C57.7357 16.4162 58.0974 15.1282 58.0974 13.4722C58.0974 12.0002 57.7357 10.5282 57.1931 9.42416C56.4696 8.50416 55.5653 7.58416 54.48 6.84816ZM53.5757 17.3362C52.8522 18.2562 51.767 18.8082 50.5009 18.8082C49.2348 18.8082 48.3305 18.2562 47.4261 17.3362C46.5218 16.4162 46.3409 15.3122 46.3409 13.8402C46.3409 12.3682 46.7026 11.2642 47.4261 10.3442C48.1496 9.42416 49.2348 9.05616 50.5009 9.05616C51.767 9.05616 52.6713 9.60816 53.5757 10.3442C54.2992 11.2642 54.6609 12.3682 54.6609 13.8402C54.6609 15.1282 54.2992 16.2322 53.5757 17.3362ZM69.1305 5.74416C68.2261 5.74416 67.3218 5.92816 66.5983 6.48016C65.8748 7.03216 65.1513 7.58416 64.6087 8.32016V1.88016C64.6087 1.32816 64.4279 0.960162 64.0661 0.592162C63.7044 0.224161 63.3426 0.0401611 62.8 0.0401611C62.2574 0.0401611 61.8957 0.224161 61.534 0.592162C61.1722 0.960162 60.9913 1.32816 60.9913 1.88016V19.7282C60.9913 20.2802 61.1722 20.6482 61.534 21.0162C61.8957 21.3842 62.2574 21.5682 62.8 21.5682C63.3426 21.5682 63.7044 21.3842 64.0661 21.0162C64.4279 20.6482 64.6087 20.2802 64.6087 19.7282V12.3682C64.6087 11.4482 64.9705 10.5282 65.5131 9.97616C66.0557 9.42416 66.96 9.05616 68.0453 9.05616C69.1305 9.05616 69.854 9.42416 70.2157 9.97616C70.5774 10.5282 70.7583 11.4482 70.7583 12.5522V19.9122C70.7583 20.4642 70.9392 20.8322 71.3009 21.2002C71.6626 21.5682 72.0244 21.7522 72.567 21.7522C73.1096 21.7522 73.4713 21.5682 73.8331 21.2002C74.1948 20.8322 74.3757 20.4642 74.3757 19.9122V12.5522C74.3757 10.5282 74.014 8.87216 73.2905 7.76816C72.2053 6.48016 70.9392 5.74416 69.1305 5.74416ZM90.2922 5.74416C89.7496 5.74416 89.3879 5.92816 89.0261 6.29616C88.6644 6.66416 88.4835 7.03216 88.4835 7.58416C87.9409 7.03216 87.2174 6.66416 86.4939 6.29616C85.7705 5.92816 84.8661 5.74416 83.9618 5.74416C82.6957 5.74416 81.6105 6.11216 80.5253 6.66416C79.44 7.40016 78.7166 8.32016 77.9931 9.60816C77.4505 10.8962 77.0887 12.1842 77.0887 13.8402C77.0887 15.3122 77.4505 16.7842 77.9931 17.8882C78.5357 19.1762 79.44 20.0962 80.5253 20.6482C81.6105 21.3842 82.6957 21.5682 83.9618 21.5682C84.8661 21.5682 85.7705 21.3842 86.4939 21.0162C87.2174 20.6482 87.9409 20.0962 88.3027 19.5442C88.3027 20.0962 88.4835 20.4642 88.8453 20.8322C89.207 21.2002 89.5687 21.3842 90.1113 21.3842C90.654 21.3842 91.0157 21.2002 91.3774 20.8322C91.7392 20.4642 91.92 20.0962 91.92 19.5442V7.40016C91.92 6.84816 91.7392 6.48016 91.3774 6.11216C91.1966 5.92816 90.8348 5.74416 90.2922 5.74416ZM87.5792 17.3362C86.8557 18.2562 85.7705 18.6242 84.5044 18.6242C83.2383 18.6242 82.334 18.0722 81.4296 17.3362C80.7061 16.4162 80.3444 15.3122 80.3444 13.8402C80.3444 12.3682 80.7061 11.2642 81.4296 10.3442C82.1531 9.42416 83.2383 8.87216 84.5044 8.87216C85.7705 8.87216 86.6748 9.42416 87.5792 10.3442C88.3027 11.2642 88.6644 12.3682 88.6644 13.8402C88.6644 15.1282 88.3027 16.2322 87.5792 17.3362ZM105.485 11.6322C104.581 11.2642 103.496 10.8962 102.23 10.3442C100.602 9.79216 99.5166 9.24016 98.6122 8.68816C97.8887 8.13616 97.3461 7.21616 97.3461 6.11216C97.3461 5.00816 97.8887 4.27216 98.6122 3.53616C99.5166 2.98416 100.602 2.61616 101.868 2.61616C102.772 2.61616 103.677 2.80016 104.581 3.16816C105.666 3.72016 106.209 4.27216 106.751 4.82416C106.932 5.00816 107.113 5.00816 107.294 5.00816C107.475 5.00816 107.837 4.82416 107.837 4.64016C107.837 4.45616 108.198 4.27216 108.198 4.08816C108.198 3.90416 108.017 3.53616 107.837 3.35216C107.294 2.61616 106.39 2.06416 105.485 1.69616C104.4 1.32816 103.496 1.14416 102.23 1.14416C100.964 1.14416 99.8783 1.32816 98.974 1.88016C98.0696 2.43216 97.1653 2.98416 96.8035 3.72016C96.2609 4.45616 96.08 5.37616 96.08 6.48016C96.08 7.58416 96.2609 8.50416 96.8035 9.24016C97.3461 9.97616 97.8887 10.5282 98.7931 11.0802C99.5166 11.6322 100.602 11.8162 101.868 12.3682C102.953 12.7362 103.857 13.1042 104.581 13.4722C105.304 13.8402 105.847 14.2082 106.39 14.7602C106.932 15.3122 107.113 16.0482 107.113 16.7842C107.113 17.8882 106.57 18.6242 105.847 19.3602C104.943 19.9122 103.857 20.2802 102.41 20.2802C100.24 20.2802 98.4314 19.5442 96.8035 17.8882C96.6227 17.7042 96.4418 17.5202 96.2609 17.5202C96.08 17.5202 95.8992 17.7042 95.7183 17.8882C95.5374 18.0722 95.3566 18.2562 95.3566 18.4402C95.3566 18.8082 95.5374 18.9922 95.7183 19.1762C96.6227 20.0962 97.7079 20.8322 98.7931 21.3842C99.8783 21.9362 100.964 22.1202 102.41 22.1202C103.677 22.1202 104.762 21.9362 105.847 21.3842C106.751 20.8322 107.656 20.2802 108.198 19.5442C108.741 18.8082 108.922 17.8882 108.922 16.9682C108.922 15.6802 108.56 14.7602 108.198 13.8402C107.113 12.7362 106.39 12.1842 105.485 11.6322ZM122.125 7.40016C121.04 6.84816 119.774 6.48016 118.508 6.48016C117.242 6.48016 115.976 6.84816 114.89 7.40016C113.805 7.95216 112.901 9.05616 112.358 10.1602C111.816 11.2642 111.454 12.5522 111.454 14.0242C111.454 15.4962 111.816 16.7842 112.358 17.8882C112.901 18.9922 113.805 19.9122 114.89 20.6482C115.976 21.2002 117.242 21.5682 118.508 21.5682C119.774 21.5682 121.04 21.2002 122.125 20.6482C123.21 20.0962 124.115 18.9922 124.657 17.8882C125.2 16.7842 125.562 15.4962 125.562 14.0242C125.562 12.5522 125.2 11.2642 124.657 10.1602C123.934 9.05616 123.21 8.13616 122.125 7.40016ZM123.21 17.3362C122.668 18.2562 122.125 18.9922 121.221 19.5442C120.317 20.0962 119.412 20.2802 118.508 20.2802C117.423 20.2802 116.518 19.9122 115.795 19.5442C115.071 19.1762 114.348 18.2562 113.805 17.3362C113.263 16.4162 113.082 15.4962 113.082 14.2082C113.082 13.1042 113.263 12.0002 113.805 11.0802C114.348 10.1602 114.89 9.42416 115.795 8.87216C116.518 8.32016 117.604 8.13616 118.508 8.13616C119.412 8.13616 120.497 8.50416 121.221 8.87216C122.125 9.42416 122.668 10.1602 123.21 11.0802C123.753 12.0002 123.934 12.9202 123.934 14.2082C123.934 15.3122 123.753 16.2322 123.21 17.3362ZM135.148 0.592162C134.605 0.408162 134.244 0.408161 133.701 0.408161C132.616 0.408161 131.711 0.776161 130.988 1.32816C130.264 1.88016 129.903 2.98416 129.903 4.08816V7.03216H127.913C127.732 7.03216 127.551 7.03216 127.37 7.21616C127.19 7.40016 127.19 7.58416 127.19 7.76816C127.19 7.95216 127.19 8.13616 127.37 8.32016C127.551 8.50416 127.732 8.50416 127.913 8.50416H129.903V20.4642C129.903 20.6482 129.903 21.0162 130.084 21.0162C130.264 21.2002 130.445 21.2002 130.626 21.2002C130.807 21.2002 131.169 21.2002 131.169 21.0162C131.35 20.8322 131.35 20.6482 131.35 20.4642V8.50416H134.424C134.605 8.50416 134.786 8.50416 134.967 8.32016C135.148 8.13616 135.148 7.95216 135.148 7.76816C135.148 7.58416 135.148 7.40016 134.967 7.21616C134.786 7.03216 134.605 7.03216 134.424 7.03216H131.35V4.08816C131.35 3.35216 131.53 2.80016 131.892 2.43216C132.254 2.06416 132.616 1.88016 133.339 1.88016C133.52 1.88016 133.882 1.88016 134.244 2.06416C134.424 2.24816 134.786 2.24816 134.786 2.24816C134.786 2.24816 135.148 2.24816 135.329 2.06416C135.51 1.88016 135.51 1.69616 135.51 1.51216C135.871 0.960162 135.69 0.776162 135.148 0.592162ZM145.096 8.50416C145.277 8.50416 145.457 8.50416 145.638 8.32016C145.819 8.13616 145.819 7.95216 145.819 7.76816C145.819 7.58416 145.819 7.40016 145.638 7.21616C145.457 7.03216 145.277 7.03216 145.096 7.03216H142.383V3.72016C142.383 3.53616 142.383 3.16816 142.202 3.16816C142.021 2.98416 141.84 2.98416 141.659 2.98416C141.478 2.98416 141.117 2.98416 141.117 3.16816C140.574 3.16816 140.574 3.35216 140.574 3.72016V6.84816H138.584C138.404 6.84816 138.223 6.84816 138.042 7.03216C137.861 7.21616 137.861 7.40016 137.861 7.58416C137.861 7.76816 137.861 7.95216 138.042 8.13616C138.223 8.32016 138.404 8.32016 138.584 8.32016H140.574V18.0722C140.574 19.1762 140.755 19.9122 141.117 20.2802C141.478 20.8322 141.84 21.0162 142.202 21.2002C142.564 21.3842 143.106 21.3842 143.649 21.3842C144.01 21.3842 144.372 21.2002 144.734 21.0162C145.096 20.8322 145.277 20.6482 145.277 20.2802C145.277 20.0962 145.277 19.9122 145.096 19.7282C144.915 19.5442 144.734 19.5442 144.553 19.5442C144.372 19.5442 144.372 19.5442 144.191 19.5442C144.01 19.5442 143.83 19.5442 143.83 19.5442C143.287 19.5442 143.106 19.3602 142.744 19.1762C142.383 18.9922 142.383 18.4402 142.383 17.7042V8.13616H145.096V8.50416Z" fill="#4B4B4B"/>
</svg>
